<svg xmlns="http://www.w3.org/2000/svg" width="22.241" height="23.99" viewBox="0 0 22.241 23.99">
  <g id="filter" transform="translate(-18.667)">
    <g id="Group_1" data-name="Group 1" transform="translate(18.667)">
      <path id="Path_1" data-name="Path 1" d="M29.787,0C24.4,0,18.667,1.489,18.667,4.248a2.545,2.545,0,0,0,1.2,1.987.517.517,0,0,0,.058.1l7.868,8.7V23.49a.5.5,0,0,0,.309.462.5.5,0,0,0,.543-.108l3-3a.5.5,0,0,0,.146-.354V15.029l7.868-8.7a.487.487,0,0,0,.057-.095,2.547,2.547,0,0,0,1.2-1.99C40.907,1.489,35.178,0,29.787,0Zm1.128,14.5a.5.5,0,0,0-.129.335v5.449l-2,2V14.836a.5.5,0,0,0-.129-.335l-6.405-7.08A24.789,24.789,0,0,0,29.787,8.5a24.806,24.806,0,0,0,7.532-1.075Zm-1.128-7c-5.964,0-10.121-1.712-10.121-3.249S23.823,1,29.787,1,39.908,2.712,39.908,4.248,35.752,7.5,29.787,7.5Z" transform="translate(-18.667 0)"/>
    </g>
  </g>
</svg>
